<?xml version="1.0" encoding="iso-8859-1"?>
<!-- Generator: Adobe Illustrator 19.0.0, SVG Export Plug-In . SVG Version: 6.00 Build 0)  -->
<svg version="1.1" id="Layer_1" xmlns="http://www.w3.org/2000/svg" xmlns:xlink="http://www.w3.org/1999/xlink" x="0px" y="0px"
	 viewBox="0 0 512 512" style="enable-background:new 0 0 512 512;" xml:space="preserve">
<rect x="10.199" y="164.747" style="fill:#E8E8E8;" width="410.385" height="318.929"/>
<polygon style="fill:#F07057;" points="349.063,28.325 84.069,28.325 10.199,164.744 420.588,164.744 "/>
<rect x="159.108" y="319.52" style="fill:#84B3D2;" width="112.558" height="164.156"/>
<path style="fill:#F07057;" d="M501.801,336.779c0,44.345-80.294,147.205-80.294,147.205s-80.294-102.86-80.294-147.205
	s35.949-80.294,80.294-80.294S501.801,292.434,501.801,336.779z"/>
<circle style="fill:#84B3D2;" cx="421.502" cy="336.777" r="29.441"/>
<path d="M46.916,338.768c-5.632,0-10.199,4.566-10.199,10.199v3.45c0,5.633,4.567,10.199,10.199,10.199s10.199-4.566,10.199-10.199
	v-3.45C57.116,343.334,52.548,338.768,46.916,338.768z"/>
<path d="M46.916,371.548c-5.632,0-10.199,4.566-10.199,10.199v68.15c0,5.633,4.567,10.199,10.199,10.199s10.199-4.566,10.199-10.199
	v-68.15C57.116,376.116,52.548,371.548,46.916,371.548z"/>
<path d="M430.787,246.759v-82.015c0-1.704-0.424-3.309-1.164-4.721c-0.003-0.005,0-0.009-0.003-0.015l-0.052-0.1
	c-0.007-0.013-0.013-0.025-0.02-0.039L358.096,23.588c-1.761-3.359-5.24-5.463-9.032-5.463H84.069c-3.743,0-7.186,2.051-8.969,5.342
	L1.247,159.856C0.453,161.308,0,162.973,0,164.744v318.931c0,5.633,4.566,10.199,10.199,10.199h410.388
	c0.906,0,2.14-0.26,3.166-0.527c1.529-0.398,3.01-0.982,4.334-1.845c0.572-0.372,1.116-0.8,1.46-1.24
	c0.831-1.065,20.593-26.445,40.69-57.738C497.949,389.368,512,357.156,512,336.779C512,290.014,476.343,251.421,430.787,246.759z
	 M90.145,38.523h252.75l60.83,116.021H27.321L90.145,38.523z M20.398,174.943h389.99v72.027
	c-44.672,5.497-79.374,43.675-79.374,89.809c0,20.377,14.051,52.589,41.764,95.743c10.295,16.031,20.495,30.5,28.114,40.953H281.874
	V319.519c0-5.633-4.567-10.199-10.199-10.199H159.112c-5.632,0-10.199,4.566-10.199,10.199v153.956H20.398V174.943z
	 M169.311,473.476V329.718h92.165v143.757h-92.165V473.476z M421.507,467.132c-25.098-33.752-70.095-100.454-70.095-130.353
	c0-38.651,31.444-70.095,70.095-70.095s70.095,31.445,70.095,70.095C491.602,366.679,446.606,433.38,421.507,467.132z"/>
<path d="M421.507,297.139c-21.858,0-39.64,17.783-39.64,39.64c0,21.857,17.783,39.64,39.64,39.64c21.857,0,39.64-17.782,39.64-39.64
	S443.364,297.139,421.507,297.139z M421.507,356.021c-10.61,0-19.242-8.632-19.242-19.242c0-10.61,8.632-19.242,19.242-19.242
	c10.61,0,19.242,8.632,19.242,19.242C440.748,347.389,432.118,356.021,421.507,356.021z"/>
<g>
</g>
<g>
</g>
<g>
</g>
<g>
</g>
<g>
</g>
<g>
</g>
<g>
</g>
<g>
</g>
<g>
</g>
<g>
</g>
<g>
</g>
<g>
</g>
<g>
</g>
<g>
</g>
<g>
</g>
</svg>
